<svg id="SvgjsSvg1001" width="288" height="288" xmlns="http://www.w3.org/2000/svg" version="1.1" xmlns:xlink="http://www.w3.org/1999/xlink" xmlns:svgjs="http://svgjs.com/svgjs"><defs id="SvgjsDefs1002"></defs><g id="SvgjsG1008" transform="matrix(1,0,0,1,0,0)"><svg xmlns="http://www.w3.org/2000/svg" width="288" height="288" viewBox="0 0 16 20"><path fill="#00ffae" fill-rule="evenodd" d="M214 7693.17a2.006 2.006 0 0 1-2.008-2c0-1.103.9-2 2.008-2 1.107 0 2.008.897 2.008 2s-.9 2-2.008 2m0-6a4.009 4.009 0 0 0-4.017 4 4.009 4.009 0 0 0 4.017 4.001 4.009 4.009 0 0 0 4.016-4.001 4.009 4.009 0 0 0-4.016-4m-2.008-3.002c0-1.105.9-2 2.008-2 1.11 0 2.008.895 2.008 2 0 1.106-.899 2-2.008 2a2.004 2.004 0 0 1-2.008-2m1.98 12.837c-2.58 0-4.937-1.71-5.733-4.157-.793-2.438.12-5.109 2.105-6.621.55-.42.752-1.114.662-1.799-.225-1.696 1.093-3.427 2.967-3.427 1.872 0 3.19 1.73 2.967 3.427-.09.684.11 1.38.66 1.799 1.987 1.512 2.898 4.183 2.106 6.621-.795 2.447-3.152 4.157-5.733 4.157m5.342-11.966c-.24-.216-.36-.52-.347-.84.108-2.767-2.135-5.199-4.995-5.199-2.862 0-5.104 2.433-4.996 5.2.012.32-.108.624-.348.838-4.244 3.78-3.261 11.086 2.311 13.378 2.95 1.213 6.437.493 8.69-1.758 3.496-3.488 2.898-8.753-.315-11.62" transform="translate(-206 -7679)" class="color000 svgShape"></path></svg></g></svg>